<svg id="Layer_1" data-name="Layer 1" xmlns="http://www.w3.org/2000/svg" viewBox="0 0 291 271"><defs><style>.cls-1{fill:#14426F;}</style></defs><title>news</title><rect class="cls-1" x="16.75" y="222" width="256" height="16" rx="8" ry="8"/><path class="cls-1" d="M277.5,17A11.49,11.49,0,0,1,289,28.5v231A11.49,11.49,0,0,1,277.5,271H26.5A11.49,11.49,0,0,1,15,259.5V28.5A11.49,11.49,0,0,1,26.5,17h251m0-8.53H26.5a20.06,20.06,0,0,0-20,20v231a20.06,20.06,0,0,0,20,20h251a20.06,20.06,0,0,0,20-20V28.5a20.06,20.06,0,0,0-20-20Z" transform="translate(-6.5 -8.5)"/><path class="cls-1" d="M135.25,138h-99a12.51,12.51,0,0,1-12.5-12.5v-79A12.51,12.51,0,0,1,36.25,34h99a12.51,12.51,0,0,1,12.5,12.5v79A12.51,12.51,0,0,1,135.25,138Zm-99-95a3.5,3.5,0,0,0-3.5,3.5v79a3.5,3.5,0,0,0,3.5,3.5h99a3.5,3.5,0,0,0,3.5-3.5v-79a3.5,3.5,0,0,0-3.5-3.5Z" transform="translate(-6.5 -8.5)"/><rect class="cls-1" x="152.75" y="70.5" width="121" height="16" rx="8" ry="8"/><rect class="cls-1" x="152.75" y="104" width="121" height="16" rx="8" ry="8"/><rect class="cls-1" x="16.75" y="143" width="256" height="27" rx="8" ry="8"/><rect class="cls-1" x="152.75" y="37" width="121" height="16" rx="8" ry="8"/><rect class="cls-1" x="16.42" y="185" width="256" height="16" rx="8" ry="8"/></svg>
